<?xml version="1.0" encoding="UTF-8"?>
<svg width="512" height="512" viewBox="0 0 512 512" xmlns="http://www.w3.org/2000/svg">
  <!-- Background circle -->
  <circle cx="256" cy="256" r="248" fill="#4CAF50" stroke="#2E7D32" stroke-width="16"/>
  
  <!-- Stylized plant/leaf design -->
  <path d="M256 120
           C 180 120, 140 180, 140 256
           C 140 332, 180 392, 256 392
           C 332 392, 372 332, 372 256
           C 372 180, 332 120, 256 120
           M 256 140
           C 320 140, 352 190, 352 256
           C 352 322, 320 372, 256 372
           C 192 372, 160 322, 160 256
           C 160 190, 192 140, 256 140
           Z" 
        fill="#81C784"/>
  
  <!-- Stem -->
  <path d="M256 392 L256 450" stroke="#2E7D32" stroke-width="24" stroke-linecap="round"/>
  
  <!-- Leaves -->
  <path d="M200 200
           Q 256 160, 312 200
           Q 256 240, 200 200" 
        fill="#2E7D32"/>
  
  <path d="M180 280
           Q 256 240, 332 280
           Q 256 320, 180 280" 
        fill="#2E7D32"/>
  
  <!-- Small circles representing seeds/growth -->
  <circle cx="236" cy="220" r="8" fill="#FFF9C4"/>
  <circle cx="276" cy="220" r="8" fill="#FFF9C4"/>
  <circle cx="256" cy="290" r="8" fill="#FFF9C4"/>
</svg>
